#!OML:ASF X:\für Bonn\!DataBase\2005_08_10_Bjorn_Final\c3d\bjorn.ASF
:FULLY-SPECIFIED
:DEGREES
61
root 1.31149 10.7686 3.88926 -185.036 -8.51831 -181.684
lowerback 31.1282 0.45676 5.60043
upperback 14.1841 -1.9688 0.108271
thorax -0.918884 -2.37456 -2.4668
lowerneck -14.4086 -2.71404 1.3727
upperneck -4.54998 -4.51874 1.99931
head 0.986721 -2.53223 0.16205
rclavicle -1.98785e-014 -4.37326e-015
rhumerus 82.7082 -6.63381 -74.3876
rradius 9.17021
rwrist 47.5457
rhand -18.7564 12.4175
rfingers 7.12502
rthumb 7.54028 -17.4281
lclavicle -1.98785e-014 -4.37326e-015
lhumerus 88.2407 -8.84061 57.6952
lradius 10.9217
lwrist -40.193
lhand -31.8037 -3.82813
lfingers 7.12502
lthumb -5.05916 26.0915
rfemur -67.2192 -36.6978 6.97923
rtibia 134.204
rfoot -35.6246 30.9126
rtoes -30.8338
lfemur -70.5745 12.0342 -21.1494
ltibia 134.298
lfoot -31.8112 -10.4706
ltoes -26.9159
62
root 1.31077 10.5558 3.88585 -185.383 -8.59453 -181.691
lowerback 31.5088 0.461393 5.66215
upperback 14.3233 -2.01782 0.185278
thorax -0.919337 -2.43367 -2.39556
lowerneck -14.337 -2.71947 1.38996
upperneck -4.75932 -4.53823 1.88169
head 0.902534 -2.55493 0.125854
rclavicle -4.45278e-014 6.75868e-015
rhumerus 82.5237 -6.52023 -74.1956
rradius 9.26364
rwrist 47.3546
rhand -18.9177 12.4125
rfingers 7.12502
rthumb 7.38463 -17.4386
lclavicle -4.45278e-014 6.75868e-015
lhumerus 88.2384 -8.76629 56.9809
lradius 10.8734
lwrist -38.7775
lhand -31.4839 -4.03456
lfingers 7.12502
lthumb -4.75041 25.8922
rfemur -67.5857 -39.5429 5.86897
rtibia 135.882
rfoot -36.1673 32.3741
rtoes -30.9501
lfemur -71.3526 13.2054 -21.3376
ltibia 135.967
lfoot -32.2788 -10.2735
ltoes -27.6322
63
root 1.3093 10.3477 3.87952 -185.741 -8.67043 -181.699
lowerback 31.8787 0.470511 5.709
upperback 14.4609 -2.06532 0.278703
thorax -0.914814 -2.49376 -2.29788
lowerneck -14.2685 -2.72707 1.40724
upperneck -4.97956 -4.56259 1.7478
head 0.81515 -2.58103 0.0846786
rclavicle 7.95139e-015 -7.95139e-016
rhumerus 82.3325 -6.37685 -73.9799
rradius 9.38313
rwrist 47.1002
rhand -19.0109 12.3349
rfingers 7.12502
rthumb 7.29462 -17.5194
lclavicle 7.95139e-015 -7.95139e-016
lhumerus 88.186 -8.6858 56.3523
lradius 10.8571
lwrist -37.4742
lhand -31.0771 -4.30656
lfingers 7.12502
lthumb -4.35759 25.6286
rfemur -67.7025 -42.7619 4.48909
rtibia 137.501
rfoot -36.9859 33.9439
rtoes -31.2442
lfemur -72.0469 14.5237 -21.5061
ltibia 137.579
lfoot -32.8015 -10.1229
ltoes -28.4537
64
root 1.30874 10.1439 3.87183 -186.081 -8.73587 -181.707
lowerback 32.2029 0.492326 5.74394
upperback 14.5956 -2.09792 0.378726
thorax -0.891732 -2.54547 -2.19174
lowerneck -14.1657 -2.73438 1.41767
upperneck -5.23961 -4.58697 1.63406
head 0.710021 -2.60807 0.052431
rclavicle -1.31198e-014 -3.97569e-015
rhumerus 82.1658 -6.23717 -73.7518
rradius 9.49149
rwrist 46.6766
rhand -18.9234 12.3221
rfingers 7.12502
rthumb 7.37908 -17.5293
lclavicle -1.31198e-014 -3.97569e-015
lhumerus 88.0818 -8.63157 56.0398
lradius 10.8429
lwrist -36.6396
lhand -30.6282 -4.62643
lfingers 7.12502
lthumb -3.92407 25.3172
rfemur -67.6052 -46.3289 2.84557
rtibia 139.074
rfoot -38.2844 35.427
rtoes -32.0792
lfemur -72.7319 16.0803 -21.6198
ltibia 139.141
lfoot -33.295 -10.2396
ltoes -28.7668
65
root 1.30744 9.94604 3.8619 -186.413 -8.80865 -181.751
lowerback 32.9255 0.466377 5.79904
upperback 14.4629 -2.12947 0.361787
thorax -1.02301 -2.59924 -2.0247
lowerneck -14.1679 -2.74666 1.40384
upperneck -5.39097 -4.61474 1.51535
head 0.658435 -2.63263 0.0188895
rclavicle 3.37934e-014 -3.02153e-014
rhumerus 81.9843 -6.08876 -73.5326
rradius 9.63552
rwrist 46.1549
rhand -18.7322 12.3216
rfingers 7.12502
rthumb 7.56368 -17.5232
lclavicle 3.37934e-014 -3.02153e-014
lhumerus 87.9629 -8.54472 55.6475
lradius 10.8183
lwrist -35.927
lhand -30.1954 -4.92899
lfingers 7.12502
lthumb -3.50611 25.0219
rfemur -67.133 -50.3232 0.712629
rtibia 140.607
rfoot -40.1924 36.7714
rtoes -33.5379
lfemur -73.3598 17.8334 -21.7948
ltibia 140.659
lfoot -33.914 -10.1722
ltoes -29.6024
66
root 1.30717 9.75234 3.85216 -186.739 -8.88683 -181.773
lowerback 33.2164 0.487091 5.80857
upperback 14.5828 -2.16627 0.46666
thorax -0.992901 -2.65275 -1.90318
lowerneck -14.367 -2.75624 1.34788
upperneck -5.43814 -4.64039 1.43419
head 0.675388 -2.65354 -0.00168167
rclavicle 4.37326e-015 -1.43125e-014
rhumerus 81.8375 -5.92905 -73.2968
rradius 9.76334
rwrist 45.5976
rhand -18.395 12.3111
rfingers 7.12502
rthumb 7.8891 -17.5217
lclavicle 4.37326e-015 -1.43125e-014
lhumerus 87.8007 -8.48708 55.7029
lradius 10.7614
lwrist -35.9028
lhand -29.8683 -5.1405
lfingers 7.12502
lthumb -3.19028 24.8154
rfemur -66.1374 -54.6323 -1.9726
rtibia 142.092
rfoot -42.4649 38.1252
rtoes -34.848
lfemur -73.9482 20.0058 -21.8782
ltibia 142.131
lfoot -34.5799 -10.2703
ltoes -30.3563
